#!OML:ASF I:\Actors\actors\Patient Classification 2\Patient 1\Session 1\actor1.ASF
:FULLY-SPECIFIED
:DEGREES
554
root -1.26643 18.015 6.06797 -1.93389 -13.4976 -5.1616
lowerback 6.11289 -2.39011 4.99483
upperback -0.0218156 -2.75826 2.10675
thorax -3.58406 -1.44148 -0.364328
lowerneck -15.084 2.97937 5.26592
upperneck 19.7978 3.88459 -4.8165
head 8.88359 1.70088 -2.04495
rclavicle 2.66853e-014 -7.35503e-015
rhumerus -48.8442 2.71047 -69.7629
rradius 89.5023
rwrist -5.23143
rhand 0.492399 -33.4317
rfingers 7.12502
rthumb 26.0619 -61.6639
lclavicle 2.66853e-014 -7.35503e-015
lhumerus 4.45686 13.9887 86.3464
lradius 39.4157
lwrist 31.222
lhand -17.2785 -9.76376
lfingers 7.12502
lthumb 8.96665 20.0257
rfemur 15.53 1.12977 21.588
rtibia -8.1223
rfoot -10.0764 -6.96132
rtoes 7.29835
lfemur 24.3509 -5.45669 -11.1582
ltibia -18.3936
lfoot -3.82276 15.4956
ltoes -21.2423
555
root -1.29508 18.0202 6.06316 -2.09657 -12.294 -5.17796
lowerback 6.1825 -2.30753 5.21572
upperback 0.0102878 -2.6311 2.01851
thorax -3.59851 -1.38233 -0.588479
lowerneck -15.1357 2.66724 4.9113
upperneck 19.8197 3.45706 -4.45556
head 8.8631 1.51181 -1.91515
rclavicle 1.8108e-015 -2.38542e-015
rhumerus -48.8336 1.64283 -70.5691
rradius 86.482
rwrist -4.69414
rhand -0.252777 -33.5249
rfingers 7.12502
rthumb 25.3482 -61.8602
lclavicle 1.8108e-015 -2.38542e-015
lhumerus 2.52979 13.3259 86.448
lradius 39.5099
lwrist 31.311
lhand -17.3839 -9.71374
lfingers 7.12502
lthumb 8.8649 20.08
rfemur 15.3645 -0.0734852 21.548
rtibia -7.20263
rfoot -10.5074 -6.52667
rtoes 7.07365
lfemur 24.3267 -6.00435 -10.9711
ltibia -18.763
lfoot -3.22321 15.0538
ltoes -21.6393
556
root -1.32396 18.0179 6.05799 -2.31975 -11.1281 -5.15448
lowerback 5.97278 -2.2137 5.30647
upperback 0.305427 -2.53019 1.95957
thorax -3.17566 -1.32232 -0.72654
lowerneck -15.2516 2.40769 4.61387
upperneck 19.5292 3.10193 -4.20248
head 8.75724 1.34991 -1.82001
rclavicle -1.60105e-014 2.80286e-014
rhumerus -48.4446 0.568091 -71.278
rradius 83.4652
rwrist -4.24861
rhand -0.882163 -33.7396
rfingers 7.12502
rthumb 24.7452 -62.159
lclavicle -1.60105e-014 2.80286e-014
lhumerus 0.939953 12.7098 86.6036
lradius 39.5798
lwrist 31.2052
lhand -17.5305 -9.90958
lfingers 7.12502
lthumb 8.72338 19.8902
rfemur 15.1617 -1.24385 21.4808
rtibia -6.08931
rfoot -11.0658 -5.98141
rtoes 7.17015
lfemur 24.3947 -6.4741 -10.8385
ltibia -19.1289
lfoot -2.69757 14.5967
ltoes -21.9908
557
root -1.35418 18.0154 6.05288 -2.50186 -10.0284 -5.20432
lowerback 5.57285 -2.11169 5.26576
upperback 0.742876 -2.44486 2.03031
thorax -2.48874 -1.26036 -0.666045
lowerneck -15.4156 2.21918 4.31316
upperneck 19.1002 2.8543 -4.00235
head 8.62132 1.23252 -1.72817
rclavicle -2.77429e-014 -9.14409e-015
rhumerus -47.774 -0.338916 -71.8359
rradius 80.5182
rwrist -3.97344
rhand -1.52714 -33.9539
rfingers 7.12502
rthumb 24.1269 -62.4568
lclavicle -2.77429e-014 -9.14409e-015
lhumerus -0.378849 12.2144 86.8258
lradius 39.5245
lwrist 30.7114
lhand -17.7644 -10.0093
lfingers 7.12502
lthumb 8.49774 19.7997
rfemur 14.9217 -2.3619 21.5212
rtibia -4.99174
rfoot -11.6424 -5.44111
rtoes 7.50397
lfemur 24.4118 -6.83551 -10.6015
ltibia -19.4305
lfoot -2.17863 14.082
ltoes -22.4592
558
root -1.38493 18.0176 6.0525 -2.57486 -9.00424 -5.20359
lowerback 6.17288 -1.92113 5.6008
upperback 0.342784 -2.11057 1.81095
thorax -3.2432 -1.11918 -1.07663
lowerneck -15.2323 1.84242 4.13771
upperneck 19.347 2.28451 -3.52164
head 8.63775 1.00397 -1.60709
rclavicle -4.772e-015 1.0138e-014
rhumerus -48.5714 -1.34483 -72.4762
rradius 77.8143
rwrist -3.72438
rhand -2.14989 -33.9282
rfingers 7.12502
rthumb 23.5296 -62.509
lclavicle -4.772e-015 1.0138e-014
lhumerus -2.91084 11.0322 86.5438
lradius 39.4788
lwrist 30.219
lhand -17.963 -10.0016
lfingers 7.12502
lthumb 8.30602 19.8151
rfemur 14.5611 -3.40336 21.5288
rtibia -3.90775
rfoot -12.2041 -4.92161
rtoes 7.95496
lfemur 24.2909 -7.15607 -10.416
ltibia -19.6904
lfoot -1.71151 13.617
ltoes -22.2246
